<?xml version="1.0" encoding="UTF-8"?>
<svg width="700pt" height="700pt" version="1.1" viewBox="0 0 700 700" xmlns="http://www.w3.org/2000/svg">
 <g fill-rule="evenodd">
  <path d="m296.91 104.34s-45.219 0.070312-87.133 0.14062c-48.266 0.085938-87.344 39.254-87.344 87.5v228.02c0 23.203 9.2227 45.465 25.621 61.879 16.414 16.398 38.676 25.621 61.879 25.621h227.55c48.336 0 87.5-39.184 87.5-87.5v-87.57c0-9.6602-7.8398-17.5-17.5-17.5-9.6406 0-17.5 7.8398-17.5 17.5v87.57c0 28.996-23.504 52.5-52.5 52.5h-227.55c-13.93 0-27.281-5.5312-37.117-15.383-9.8516-9.8359-15.383-23.188-15.383-37.117v-228.02c0-28.945 23.449-52.449 52.414-52.5 41.895-0.070312 87.133-0.14062 87.133-0.14062 9.6602-0.015626 17.484-7.875 17.465-17.535-0.015625-9.6602-7.875-17.484-17.535-17.465z"/>
  <path d="m465.01 68.004-163.99 163.99c-2.3984 2.3984-4.0586 5.4414-4.7422 8.7656l-18.918 90.16c-1.207 5.7578 0.55859 11.742 4.6914 15.906 4.1484 4.1836 10.098 6.0039 15.871 4.8477l90.895-18.164c3.3789-0.68359 6.4922-2.3438 8.9414-4.7969 0 0 106.42-106.42 163.99-163.98 26.703-26.723 26.703-70.016 0-96.723-0.015625 0-0.015625-0.015625-0.015625-0.015625-26.723-26.703-70.016-26.703-96.723 0zm-19.441 68.934 47.234 47.25-116.04 116.04-59.711 11.934 12.406-59.113zm71.977 22.488-47.234-47.234 19.441-19.441c13.039-13.039 34.176-13.039 47.215 0 0.015625 0 0.015625 0.015625 0.015625 0.015625 13.039 13.039 13.039 34.176 0 47.215l-19.441 19.441z"/>
 </g>
</svg>
